<svg width="51" height="47" viewBox="0 0 51 47" fill="none" xmlns="http://www.w3.org/2000/svg">
<path id="Subtract" fill-rule="evenodd" clip-rule="evenodd" d="M51 1.31837V0C50.0064 0.0439452 48.7535 0.087893 47.2414 0.131838C45.7726 0.175783 44.2821 0.197755 42.77 0.197755H41.2147H39.7243L32.8651 18.8969H34.3936L39.7243 4.33368V18.8969H45.7509V6.98737C45.7509 5.36138 45.8806 4.17485 46.1398 3.42777C46.399 2.63675 46.8958 2.1094 47.6302 1.84572C48.4079 1.5381 49.5311 1.36232 51 1.31837ZM45.7509 28.1031H39.7243V39.683C39.7243 41.2651 39.5947 42.4516 39.3354 43.2426C39.0762 44.0337 38.5578 44.561 37.7802 44.8247C37.0457 45.0884 35.9441 45.2641 34.4752 45.352V46.6704C35.3825 46.5825 36.5705 46.5386 38.0394 46.5386C39.5083 46.4946 41.0851 46.4726 42.77 46.4726C44.2821 46.4726 45.7726 46.4946 47.2414 46.5386C48.7535 46.5386 50.0064 46.5825 51 46.6704V45.352C49.5311 45.2641 48.4079 45.0884 47.6302 44.8247C46.8958 44.561 46.399 44.0337 46.1398 43.2426C45.8806 42.4516 45.7509 41.2651 45.7509 39.683V28.1031ZM31.0237 28.1031H29.488L25.7872 38.192L22.0223 28.1031H15.8566L23.0699 47H24.1067L31.0237 28.1031ZM12.3424 18.8969L6.73952 4.21879V18.8969H5.24905V6.98737C5.24905 5.36138 5.11944 4.17485 4.86023 3.42777C4.60102 2.63675 4.08259 2.1094 3.30496 1.84572C2.57052 1.5381 1.46887 1.36232 0 1.31837V0C0.734435 0.0439452 1.64168 0.087893 2.72173 0.131838C3.84498 0.175783 4.94663 0.197755 6.02668 0.197755C6.97713 0.197755 7.94917 0.175783 8.94282 0.131838C9.97967 0.087893 10.8437 0.0439452 11.5349 0L18.5868 18.8969H12.3424ZM5.24905 28.1031H6.73952V39.0238C6.73952 40.6059 6.86912 41.8583 7.12833 42.7812C7.43075 43.6601 7.99238 44.2973 8.81321 44.6928C9.67725 45.0444 10.9517 45.2641 12.6366 45.352V46.6704C11.859 46.5825 10.8437 46.5386 9.59085 46.5386C8.33799 46.4946 7.14994 46.4726 6.02668 46.4726C4.94663 46.4726 3.84498 46.4946 2.72173 46.5386C1.64168 46.5386 0.734435 46.5825 0 46.6704V45.352C1.46887 45.2641 2.57052 45.0444 3.30496 44.6928C4.08259 44.2973 4.60102 43.6601 4.86023 42.7812C5.11944 41.8583 5.24905 40.6059 5.24905 39.0238V28.1031Z" fill="#C8FA05"/>
</svg>
